<svg width="549" height="549" viewBox="0 0 549 549" fill="none" xmlns="http://www.w3.org/2000/svg">
<rect x="36.2922" y="99.802" width="40.8282" height="131.558" fill="#E1A72C"/>
<rect x="471.81" y="99.8027" width="40.8282" height="131.558" fill="#E1A72C"/>
<rect x="317.554" y="77.1199" width="40.8282" height="90.7293" transform="rotate(-90 317.554 77.1199)" fill="white"/>
<rect x="317.553" y="512.621" width="40.8282" height="90.7293" transform="rotate(-90 317.553 512.621)" fill="white"/>
<rect x="294.871" y="449.11" width="40.8282" height="95.2658" transform="rotate(-180 294.871 449.11)" fill="white"/>
<rect x="294.871" y="195.068" width="40.8282" height="95.2658" transform="rotate(-180 294.871 195.068)" fill="white"/>
<rect x="136.094" y="294.87" width="40.8282" height="58.9741" transform="rotate(-90 136.094 294.87)" fill="white"/>
<rect x="339.874" y="397.922" width="40.8282" height="74.0877" transform="rotate(45 339.874 397.922)" fill="white"/>
<rect width="40.8282" height="74.0877" transform="matrix(-0.707107 0.707107 0.707107 0.707107 209.04 397.922)" fill="white"/>
<rect width="40.8282" height="185.035" transform="matrix(0.707107 -0.707107 -0.707107 -0.707107 418.341 229.444)" fill="white"/>
<rect x="130.589" y="229.443" width="40.8282" height="185.035" transform="rotate(-135 130.589 229.443)" fill="white"/>
<rect x="353.845" y="294.87" width="40.8282" height="58.9741" transform="rotate(-90 353.845 294.87)" fill="white"/>
<rect x="100.29" y="477.493" width="40.8282" height="224.76" transform="rotate(-135 100.29 477.493)" fill="#E1A72C"/>
<rect width="40.8282" height="141.13" transform="matrix(0.707107 -0.707107 -0.707107 -0.707107 201.066 229.934)" fill="white"/>
<rect x="347.857" y="229.925" width="40.8282" height="141.117" transform="rotate(-135 347.857 229.925)" fill="white"/>
<rect width="40.8282" height="226.042" transform="matrix(0.707107 -0.707107 -0.707107 -0.707107 448.64 477.493)" fill="#E1A72C"/>
<rect x="140.631" y="77.1199" width="40.8282" height="90.7293" transform="rotate(-90 140.631 77.1199)" fill="white"/>
<rect x="140.631" y="512.621" width="40.8282" height="90.7293" transform="rotate(-90 140.631 512.621)" fill="white"/>
<rect x="36.2922" y="317.552" width="40.8282" height="131.558" fill="#E1A72C"/>
<rect x="471.81" y="317.553" width="40.8282" height="131.558" fill="#E1A72C"/>
<path d="M113.412 56.7058C113.412 88.0236 88.0243 113.412 56.7066 113.412C25.3888 113.412 0.000724727 88.0236 0.000727464 56.7058C0.000730202 25.3881 25.3888 2.2195e-06 56.7066 4.95738e-06C88.0243 7.69527e-06 113.412 25.3881 113.412 56.7058ZM32.9912 56.7058C32.9912 69.8035 43.6089 80.4212 56.7066 80.4212C69.8042 80.4212 80.4219 69.8035 80.4219 56.7058C80.4219 43.6082 69.8042 32.9905 56.7066 32.9905C43.6089 32.9905 32.9912 43.6082 32.9912 56.7058Z" fill="#E1A72C"/>
<path d="M331.162 56.7058C331.162 88.0236 305.774 113.412 274.457 113.412C243.139 113.412 217.751 88.0236 217.751 56.7058C217.751 25.3881 243.139 2.2195e-06 274.457 4.95738e-06C305.774 7.69527e-06 331.162 25.3881 331.162 56.7058ZM250.741 56.7058C250.741 69.8035 261.359 80.4212 274.457 80.4212C287.554 80.4212 298.172 69.8035 298.172 56.7058C298.172 43.6082 287.554 32.9905 274.457 32.9905C261.359 32.9905 250.741 43.6082 250.741 56.7058Z" fill="white"/>
<path d="M548.93 56.7063C548.93 88.0241 523.542 113.412 492.224 113.412C460.906 113.412 435.518 88.0241 435.518 56.7063C435.518 25.3886 460.906 0.000490501 492.224 0.000493239C523.542 0.000495977 548.93 25.3886 548.93 56.7063ZM468.509 56.7063C468.509 69.804 479.126 80.4217 492.224 80.4217C505.322 80.4217 515.939 69.804 515.939 56.7063C515.939 43.6087 505.322 32.991 492.224 32.991C479.126 32.991 468.509 43.6087 468.509 56.7063Z" fill="#E1A72C"/>
<path d="M113.412 274.456C113.412 305.774 88.0238 331.162 56.7061 331.162C25.3883 331.162 0.000236445 305.774 0.000239183 274.456C0.000241921 243.139 25.3883 217.75 56.7061 217.75C88.0238 217.75 113.412 243.139 113.412 274.456ZM32.9907 274.456C32.9907 287.554 43.6084 298.172 56.7061 298.172C69.8037 298.172 80.4214 287.554 80.4214 274.456C80.4214 261.359 69.8037 250.741 56.7061 250.741C43.6084 250.741 32.9907 261.359 32.9907 274.456Z" fill="#E1A72C"/>
<path d="M331.162 274.456C331.162 305.774 305.774 331.162 274.457 331.162C243.139 331.162 217.751 305.774 217.751 274.456C217.751 243.139 243.139 217.75 274.457 217.75C305.774 217.75 331.162 243.139 331.162 274.456ZM250.741 274.456C250.741 287.554 261.359 298.172 274.457 298.172C287.554 298.172 298.172 287.554 298.172 274.456C298.172 261.359 287.554 250.741 274.457 250.741C261.359 250.741 250.741 261.359 250.741 274.456Z" fill="#E1A72C"/>
<path d="M548.93 274.457C548.93 305.775 523.542 331.163 492.224 331.163C460.906 331.163 435.518 305.775 435.518 274.457C435.518 243.139 460.906 217.751 492.224 217.751C523.542 217.751 548.93 243.139 548.93 274.457ZM468.509 274.457C468.509 287.554 479.126 298.172 492.224 298.172C505.322 298.172 515.939 287.554 515.939 274.457C515.939 261.359 505.322 250.741 492.224 250.741C479.126 250.741 468.509 261.359 468.509 274.457Z" fill="#E1A72C"/>
<path d="M113.412 492.207C113.412 523.525 88.0238 548.913 56.7061 548.913C25.3883 548.913 0.000236445 523.525 0.000239183 492.207C0.000241921 460.889 25.3883 435.501 56.7061 435.501C88.0238 435.501 113.412 460.889 113.412 492.207ZM32.9907 492.207C32.9907 505.304 43.6084 515.922 56.7061 515.922C69.8037 515.922 80.4214 505.304 80.4214 492.207C80.4214 479.109 69.8037 468.491 56.7061 468.491C43.6084 468.491 32.9907 479.109 32.9907 492.207Z" fill="#E1A72C"/>
<path d="M331.162 492.207C331.162 523.525 305.774 548.913 274.457 548.913C243.139 548.913 217.751 523.525 217.751 492.207C217.751 460.889 243.139 435.501 274.457 435.501C305.774 435.501 331.162 460.889 331.162 492.207ZM250.741 492.207C250.741 505.304 261.359 515.922 274.457 515.922C287.554 515.922 298.172 505.304 298.172 492.207C298.172 479.109 287.554 468.491 274.457 468.491C261.359 468.491 250.741 479.109 250.741 492.207Z" fill="white"/>
<path d="M548.93 492.207C548.93 523.525 523.542 548.913 492.224 548.913C460.906 548.913 435.518 523.525 435.518 492.207C435.518 460.889 460.906 435.501 492.224 435.501C523.542 435.501 548.93 460.889 548.93 492.207ZM468.509 492.207C468.509 505.304 479.126 515.922 492.224 515.922C505.322 515.922 515.939 505.304 515.939 492.207C515.939 479.109 505.322 468.491 492.224 468.491C479.126 468.491 468.509 479.109 468.509 492.207Z" fill="#E1A72C"/>
<rect x="424.363" y="313.449" width="40.8282" height="38.9233" transform="rotate(45 424.363 313.449)" fill="white"/>
<rect width="40.8282" height="38.9233" transform="matrix(-0.707107 0.707107 0.707107 0.707107 124.567 313.448)" fill="white"/>
</svg>
