<svg width="1385" height="549" viewBox="0 0 1385 549" fill="none" xmlns="http://www.w3.org/2000/svg">
<path d="M654.306 275.47L605.795 74.5194H647.776L678.434 212.535L715.577 74.5194H764.36L799.991 214.877L831.178 74.5194H872.494L823.136 275.47H779.598L739.129 125.234L698.766 275.47H654.276H654.306ZM896.984 176.233C896.984 155.747 900.068 138.573 906.266 124.667C910.907 114.462 917.195 105.256 925.193 97.1091C933.19 89.0222 941.942 82.9793 951.451 79.0552C964.135 73.7286 978.708 71.1025 995.276 71.1025C1025.24 71.1025 1049.18 80.2787 1067.16 98.6609C1085.15 116.998 1094.13 142.542 1094.13 175.248C1094.13 207.954 1085.18 233.081 1067.34 251.418C1049.5 269.711 1025.65 278.887 995.835 278.887C966.024 278.887 941.549 269.755 923.711 251.567C905.873 233.319 896.969 208.193 896.969 176.233H896.984ZM939.236 174.875C939.236 197.614 944.588 214.877 955.185 226.62C965.828 238.362 979.327 244.211 995.699 244.211C1012.07 244.211 1025.47 238.407 1035.97 226.709C1046.43 215.057 1051.68 197.614 1051.68 174.308C1051.68 151.002 1046.57 134.112 1036.4 122.743C1026.18 111.418 1012.59 105.763 995.699 105.763C978.813 105.763 965.132 111.522 954.762 122.981C944.452 134.44 939.236 151.704 939.236 174.875ZM1166.81 275.47L1118.3 74.5194H1160.28L1190.94 212.535L1228.08 74.5194H1276.87L1312.5 214.877L1343.68 74.5194H1385L1335.64 275.47H1292.1L1251.63 125.234L1211.27 275.47H1166.78H1166.81Z" fill="#E1A72C"/>
<path d="M666.37 370.917H642.681V308.34H666.37C670.951 308.34 675.153 309.071 678.978 310.533C682.803 311.995 686.098 314.084 688.834 316.785C691.571 319.501 693.717 322.768 695.259 326.618C696.801 330.467 697.557 334.794 697.557 339.628C697.557 344.463 696.786 348.805 695.259 352.684C693.717 356.563 691.586 359.831 688.834 362.517C686.098 365.202 682.803 367.276 678.978 368.724C675.153 370.186 670.951 370.917 666.37 370.917ZM666.37 319.336H654.261V359.92H666.37C672.402 359.92 676.998 358.145 680.157 354.609C683.317 351.058 684.904 346.074 684.904 339.643C684.904 333.213 683.317 328.214 680.157 324.678C676.998 321.127 672.402 319.366 666.37 319.366V319.336ZM759.356 370.917H717.95V308.34H758.449V319.426H729.787V332.75H752.024V343.836H729.787V359.831H759.356V370.917ZM797.83 372.17C793.31 372.17 789.183 371.723 785.449 370.827C781.715 369.932 778.842 368.858 776.862 367.605L778.223 354.549C780.158 356.399 782.849 357.966 786.31 359.249C789.772 360.532 793.703 361.174 798.117 361.174C805.645 361.174 809.425 358.906 809.425 354.385C809.425 353.072 809.107 351.893 808.472 350.849C807.837 349.804 807.021 348.894 806.023 348.118C805.026 347.342 803.937 346.686 802.773 346.149C801.594 345.612 800.445 345.164 799.296 344.806L790.8 341.852L787.187 340.33C783.393 338.778 780.611 336.928 778.873 334.794C777.119 332.646 776.167 329.676 775.985 325.857C775.985 323.469 776.439 321.157 777.346 318.934C778.253 316.695 779.629 314.696 781.503 312.95C783.378 311.19 785.751 309.772 788.638 308.698C791.526 307.624 794.942 307.087 798.858 307.087C800.853 307.087 802.849 307.236 804.874 307.534C806.9 307.833 808.805 308.206 810.619 308.653C812.433 309.101 814.051 309.623 815.502 310.22C816.953 310.817 818.132 311.384 819.024 311.921L817.845 323.634C810.846 319.874 804.678 318.008 799.311 318.008C797.739 318.008 796.273 318.128 794.882 318.367C793.491 318.605 792.282 318.993 791.223 319.53C790.165 320.068 789.319 320.754 788.684 321.589C788.049 322.425 787.731 323.44 787.731 324.633C787.731 326.185 788.109 327.393 788.865 328.259C789.621 329.124 790.74 329.885 792.206 330.542C793.688 331.198 795.532 331.87 797.769 332.556C800.007 333.242 802.592 334.153 805.54 335.287L810.422 337.166C811.692 337.644 813.007 338.33 814.398 339.226C815.789 340.121 817.059 341.225 818.238 342.538C819.417 343.851 820.4 345.388 821.171 347.148C821.957 348.909 822.35 350.893 822.35 353.087C822.35 354.997 822.108 357.056 821.624 359.249C821.141 361.457 820.052 363.531 818.374 365.456C816.681 367.396 814.217 369.007 810.952 370.29C807.701 371.573 803.332 372.215 797.845 372.215L797.83 372.17ZM891.36 370.917H879.342L873.915 355.802H852.841L847.414 370.917H835.396L857.906 308.34H868.851L891.36 370.917ZM869.924 344.731L863.318 326.409L856.802 344.731H869.909H869.924ZM957.211 370.917H945.193L932.086 347.671H920.325V370.917H908.76V308.34H931.905C946.432 308.34 953.689 314.353 953.689 326.394C953.689 330.87 952.751 334.496 950.892 337.301C949.017 340.106 946.372 342.538 942.94 344.627L957.226 370.902L957.211 370.917ZM929.274 317.904H920.325V336.943H928.821C933.704 336.943 937.045 336.122 938.859 334.481C940.673 332.84 941.565 330.407 941.565 327.2C941.565 323.992 940.688 321.709 938.949 320.187C937.196 318.665 933.976 317.904 929.274 317.904ZM1023.98 370.917H1011.97L998.859 347.671H987.098V370.917H975.533V308.34H998.678C1013.21 308.34 1020.46 314.353 1020.46 326.394C1020.46 330.87 1019.52 334.496 1017.66 337.301C1015.79 340.106 1013.14 342.538 1009.71 344.627L1024 370.902L1023.98 370.917ZM996.047 317.904H987.098V336.943H995.594C1000.48 336.943 1003.82 336.122 1005.63 334.481C1007.45 332.84 1008.34 330.407 1008.34 327.2C1008.34 323.992 1007.46 321.709 1005.72 320.187C1003.97 318.665 1000.75 317.904 996.047 317.904ZM1092.12 363.218C1086.33 369.171 1078.86 372.155 1069.7 372.155C1065.18 372.155 1061.01 371.379 1057.18 369.828C1053.36 368.276 1050.06 366.068 1047.28 363.218C1044.51 360.353 1042.35 356.936 1040.81 352.938C1039.27 348.939 1038.51 344.507 1038.51 339.613C1038.51 334.72 1039.3 330.288 1040.85 326.289C1042.43 322.291 1044.57 318.874 1047.32 316.009C1050.06 313.144 1053.36 310.936 1057.18 309.399C1061.01 307.848 1065.18 307.072 1069.7 307.072C1074.22 307.072 1078.39 307.862 1082.22 309.444C1086.04 311.026 1089.34 313.249 1092.12 316.099C1094.88 318.963 1097.05 322.38 1098.59 326.379C1100.13 330.378 1100.89 334.779 1100.89 339.613C1100.89 349.386 1097.97 357.25 1092.12 363.218ZM1083.44 323.977C1080.25 320.038 1075.67 318.083 1069.7 318.083C1066.69 318.083 1064.03 318.605 1061.75 319.65C1059.45 320.694 1057.53 322.156 1055.96 324.036C1054.38 325.916 1053.21 328.184 1052.39 330.825C1051.57 333.481 1051.16 336.406 1051.16 339.628C1051.16 342.851 1051.57 345.776 1052.39 348.432C1053.21 351.087 1054.4 353.34 1055.96 355.22C1057.53 357.1 1059.45 358.563 1061.75 359.607C1064.03 360.652 1066.69 361.174 1069.7 361.174C1072.71 361.174 1075.37 360.652 1077.65 359.607C1079.93 358.563 1081.87 357.1 1083.44 355.22C1085.01 353.34 1086.19 351.073 1087.01 348.432C1087.82 345.776 1088.23 342.851 1088.23 339.628C1088.23 333.198 1086.63 327.975 1083.44 323.992V323.977ZM1158.8 370.902H1121.19V308.325H1132.75V359.816H1158.78V370.902H1158.8ZM1214.17 370.902H1176.56V308.325H1188.13V359.816H1214.16V370.902H1214.17ZM1280.58 363.218C1274.79 369.171 1267.33 372.155 1258.17 372.155C1253.65 372.155 1249.47 371.379 1245.65 369.828C1241.82 368.276 1238.53 366.068 1235.75 363.218C1232.98 360.353 1230.82 356.936 1229.28 352.938C1227.73 348.939 1226.98 344.507 1226.98 339.613C1226.98 334.72 1227.76 330.288 1229.32 326.289C1230.89 322.291 1233.04 318.874 1235.79 316.009C1238.53 313.144 1241.82 310.936 1245.65 309.399C1249.47 307.848 1253.65 307.072 1258.17 307.072C1262.69 307.072 1266.86 307.862 1270.68 309.444C1274.51 311.026 1277.8 313.249 1280.58 316.099C1283.35 318.963 1285.51 322.38 1287.05 326.379C1288.6 330.378 1289.35 334.779 1289.35 339.613C1289.35 349.386 1286.43 357.25 1280.58 363.218ZM1271.91 323.977C1268.72 320.038 1264.14 318.083 1258.17 318.083C1255.16 318.083 1252.5 318.605 1250.21 319.65C1247.92 320.694 1246 322.156 1244.42 324.036C1242.85 325.916 1241.67 328.184 1240.86 330.825C1240.04 333.481 1239.63 336.406 1239.63 339.628C1239.63 342.851 1240.04 345.776 1240.86 348.432C1241.67 351.087 1242.87 353.34 1244.42 355.22C1246 357.1 1247.92 358.563 1250.21 359.607C1252.5 360.652 1255.16 361.174 1258.17 361.174C1261.17 361.174 1263.83 360.652 1266.12 359.607C1268.4 358.563 1270.33 357.1 1271.91 355.22C1273.48 353.34 1274.66 351.073 1275.47 348.432C1276.29 345.776 1276.7 342.851 1276.7 339.628C1276.7 333.198 1275.1 327.975 1271.91 323.992V323.977ZM1328.01 372.155C1323.49 372.155 1319.36 371.708 1315.63 370.812C1311.89 369.917 1309.02 368.843 1307.04 367.59L1308.4 354.534C1310.33 356.384 1313.03 357.951 1316.49 359.234C1319.95 360.517 1323.88 361.159 1328.29 361.159C1335.82 361.159 1339.6 358.891 1339.6 354.37C1339.6 353.057 1339.28 351.878 1338.65 350.834C1338.01 349.789 1337.2 348.879 1336.2 348.103C1335.2 347.327 1334.11 346.671 1332.95 346.134C1331.77 345.597 1330.62 345.149 1329.47 344.791L1320.98 341.837L1317.36 340.315C1313.57 338.763 1310.79 336.913 1309.05 334.779C1307.3 332.631 1306.34 329.661 1306.16 325.842C1306.16 323.454 1306.62 321.142 1307.52 318.919C1308.43 316.681 1309.81 314.681 1311.68 312.935C1313.55 311.175 1315.93 309.757 1318.82 308.683C1321.7 307.609 1325.12 307.072 1329.03 307.072C1331.03 307.072 1333.03 307.221 1335.05 307.519C1337.08 307.818 1338.98 308.191 1340.8 308.638C1342.61 309.086 1344.23 309.608 1345.68 310.205C1347.13 310.802 1348.31 311.369 1349.2 311.906L1348.02 323.619C1341.02 319.859 1334.86 317.994 1329.49 317.994C1327.92 317.994 1326.45 318.113 1325.06 318.352C1323.67 318.59 1322.46 318.978 1321.4 319.515C1320.34 320.053 1319.5 320.739 1318.86 321.574C1318.23 322.41 1317.91 323.425 1317.91 324.618C1317.91 326.17 1318.29 327.379 1319.04 328.244C1319.8 329.109 1320.92 329.87 1322.38 330.527C1323.86 331.183 1325.71 331.855 1327.95 332.541C1330.18 333.227 1332.77 334.138 1335.72 335.272L1340.6 337.152C1341.87 337.629 1343.18 338.315 1344.58 339.211C1345.97 340.106 1347.24 341.21 1348.42 342.523C1349.59 343.836 1350.58 345.373 1351.35 347.133C1352.13 348.894 1352.53 350.879 1352.53 353.072C1352.53 354.982 1352.29 357.041 1351.8 359.234C1351.32 361.442 1350.23 363.516 1348.55 365.441C1346.86 367.381 1344.39 368.992 1341.14 370.275C1337.89 371.558 1333.52 372.2 1328.04 372.2L1328.01 372.155Z" fill="#080808"/>
<path d="M678.511 473.785H650.635V400.152H678.511C683.908 400.152 688.852 401.017 693.357 402.733C697.862 404.449 701.732 406.911 704.952 410.104C708.187 413.297 710.696 417.146 712.51 421.667C714.324 426.188 715.216 431.291 715.216 436.976C715.216 442.661 714.309 447.778 712.51 452.329C710.696 456.88 708.187 460.745 704.952 463.893C701.732 467.041 697.862 469.488 693.357 471.204C688.852 472.92 683.908 473.785 678.511 473.785ZM678.511 413.088H664.256V460.849H678.511C685.601 460.849 691.014 458.76 694.732 454.597C698.451 450.419 700.311 444.556 700.311 436.976C700.311 429.396 698.451 423.533 694.732 419.355C691.014 415.177 685.601 413.103 678.511 413.103V413.088ZM767.189 473.785H753.569V400.152H767.189V473.785ZM841.823 475.262C836.577 475.262 831.71 474.352 827.25 472.532C822.775 470.711 818.936 468.115 815.701 464.743C812.481 461.371 809.956 457.328 808.142 452.598C806.328 447.868 805.421 442.616 805.421 436.872C805.421 431.127 806.328 426.009 808.142 421.309C809.956 416.609 812.481 412.596 815.746 409.268C819.011 405.941 822.927 403.345 827.507 401.48C832.088 399.615 837.107 398.69 842.564 398.69C844.333 398.69 846.268 398.794 848.369 399.003C850.455 399.212 852.511 399.51 854.537 399.898C856.562 400.286 858.467 400.734 860.281 401.271C862.095 401.793 863.637 402.375 864.907 403.002L863.426 415.833C856.623 413.028 849.775 411.626 842.897 411.626C839.132 411.626 835.852 412.223 833.055 413.416C830.259 414.61 827.915 416.311 826.026 418.519C824.151 420.727 822.73 423.353 821.763 426.412C820.81 429.456 820.326 432.888 820.326 436.663C820.326 440.438 820.825 444.138 821.823 447.286C822.821 450.449 824.302 453.12 826.298 455.328C828.278 457.537 830.712 459.252 833.584 460.476C836.457 461.699 839.767 462.311 843.531 462.311C846.434 462.311 849.85 461.923 853.751 461.147V448.002H845.557V436.857H867.371V469.682C866.086 470.458 864.423 471.174 862.367 471.845C860.312 472.517 858.089 473.114 855.716 473.636C853.343 474.158 850.924 474.561 848.475 474.844C846.026 475.128 843.804 475.262 841.823 475.262ZM920.508 473.785H906.888V400.152H920.508V473.785ZM1012.38 413.193H991.303V473.785H977.682V413.193H956.624V400.152H1012.38V413.193ZM1100.84 473.785H1086.69L1080.31 456.015H1055.52L1049.14 473.785H1034.99L1061.48 400.152H1074.36L1100.84 473.785ZM1075.63 442.959L1067.86 421.399L1060.19 442.959H1075.61H1075.63ZM1179.95 473.785H1135.69V400.152H1149.31V460.744H1179.95V473.785ZM1263.96 473.785H1215.23V400.152H1262.9V413.193H1229.17V428.859H1255.34V441.9H1229.17V460.73H1263.96V473.77V473.785ZM1323.59 475.262C1318.27 475.262 1313.42 474.74 1309.02 473.681C1304.62 472.621 1301.25 471.368 1298.91 469.891L1300.51 454.538C1302.78 456.716 1305.95 458.551 1310.03 460.058C1314.12 461.565 1318.74 462.326 1323.91 462.326C1332.79 462.326 1337.22 459.655 1337.22 454.329C1337.22 452.792 1336.84 451.404 1336.1 450.181C1335.36 448.957 1334.39 447.883 1333.22 446.973C1332.06 446.063 1330.78 445.287 1329.4 444.66C1328.02 444.033 1326.65 443.496 1325.3 443.078L1315.31 439.602L1311.05 437.812C1306.57 435.991 1303.32 433.813 1301.27 431.291C1299.21 428.77 1298.08 425.263 1297.87 420.772C1297.87 417.967 1298.39 415.252 1299.47 412.626C1300.53 410 1302.16 407.642 1304.37 405.583C1306.56 403.509 1309.37 401.853 1312.77 400.585C1316.17 399.316 1320.18 398.69 1324.79 398.69C1327.13 398.69 1329.49 398.869 1331.86 399.212C1334.24 399.57 1336.49 400.003 1338.62 400.525C1340.75 401.047 1342.66 401.659 1344.37 402.36C1346.07 403.061 1347.45 403.733 1348.51 404.36L1347.13 418.146C1338.91 413.73 1331.64 411.521 1325.32 411.521C1323.47 411.521 1321.74 411.656 1320.1 411.939C1318.47 412.223 1317.03 412.67 1315.79 413.312C1314.55 413.939 1313.56 414.744 1312.82 415.729C1312.08 416.714 1311.7 417.907 1311.7 419.31C1311.7 421.13 1312.14 422.548 1313.03 423.562C1313.92 424.577 1315.22 425.472 1316.96 426.248C1318.7 427.024 1320.87 427.815 1323.5 428.62C1326.13 429.426 1329.17 430.5 1332.65 431.828L1338.39 434.037C1339.89 434.604 1341.45 435.409 1343.08 436.454C1344.71 437.513 1346.23 438.796 1347.6 440.348C1348.99 441.885 1350.14 443.69 1351.06 445.764C1351.99 447.838 1352.44 450.166 1352.44 452.762C1352.44 455 1352.15 457.432 1351.59 460.013C1351.02 462.61 1349.75 465.042 1347.77 467.324C1345.79 469.607 1342.87 471.502 1339.04 473.009C1335.22 474.516 1330.07 475.277 1323.61 475.277L1323.59 475.262Z" fill="#080808"/>
<rect x="36.292" y="99.8019" width="40.8282" height="131.558" fill="#E1A72C"/>
<rect x="471.809" y="99.8029" width="40.8282" height="131.558" fill="#E1A72C"/>
<rect x="317.553" y="77.1204" width="40.8282" height="90.7293" transform="rotate(-90 317.553 77.1204)" fill="#080808"/>
<rect x="317.553" y="512.621" width="40.8282" height="90.7293" transform="rotate(-90 317.553 512.621)" fill="#080808"/>
<rect x="294.871" y="449.11" width="40.8282" height="95.2658" transform="rotate(-180 294.871 449.11)" fill="#080808"/>
<rect x="294.871" y="195.068" width="40.8282" height="95.2658" transform="rotate(-180 294.871 195.068)" fill="#080808"/>
<rect x="136.094" y="294.871" width="40.8282" height="58.9741" transform="rotate(-90 136.094 294.871)" fill="#080808"/>
<rect x="339.874" y="397.922" width="40.8282" height="74.0877" transform="rotate(45 339.874 397.922)" fill="#080808"/>
<rect width="40.8282" height="74.0877" transform="matrix(-0.707107 0.707107 0.707107 0.707107 209.04 397.922)" fill="#080808"/>
<rect width="40.8282" height="185.035" transform="matrix(0.707107 -0.707107 -0.707107 -0.707107 418.341 229.444)" fill="#080808"/>
<rect x="130.589" y="229.443" width="40.8282" height="185.035" transform="rotate(-135 130.589 229.443)" fill="#080808"/>
<rect x="353.845" y="294.871" width="40.8282" height="58.9741" transform="rotate(-90 353.845 294.871)" fill="#080808"/>
<rect x="100.29" y="477.493" width="40.8282" height="224.76" transform="rotate(-135 100.29 477.493)" fill="#E1A72C"/>
<rect width="40.8282" height="141.13" transform="matrix(0.707107 -0.707107 -0.707107 -0.707107 201.065 229.934)" fill="#080808"/>
<rect x="347.856" y="229.926" width="40.8282" height="141.117" transform="rotate(-135 347.856 229.926)" fill="#080808"/>
<rect width="40.8282" height="226.042" transform="matrix(0.707107 -0.707107 -0.707107 -0.707107 448.64 477.493)" fill="#E1A72C"/>
<rect x="140.631" y="77.1204" width="40.8282" height="90.7293" transform="rotate(-90 140.631 77.1204)" fill="#080808"/>
<rect x="140.631" y="512.621" width="40.8282" height="90.7293" transform="rotate(-90 140.631 512.621)" fill="#080808"/>
<rect x="36.292" y="317.552" width="40.8282" height="131.558" fill="#E1A72C"/>
<rect x="471.809" y="317.553" width="40.8282" height="131.558" fill="#E1A72C"/>
<path d="M113.412 56.7058C113.412 88.0236 88.0241 113.412 56.7063 113.412C25.3885 113.412 0.000480586 88.0236 0.000483324 56.7058C0.000486062 25.3881 25.3886 2.2195e-06 56.7063 4.95738e-06C88.0241 7.69527e-06 113.412 25.3881 113.412 56.7058ZM32.991 56.7058C32.991 69.8035 43.6087 80.4212 56.7063 80.4212C69.8039 80.4212 80.4217 69.8035 80.4217 56.7058C80.4217 43.6082 69.8039 32.9905 56.7063 32.9905C43.6087 32.9905 32.991 43.6082 32.991 56.7058Z" fill="#E1A72C"/>
<path d="M331.162 56.7058C331.162 88.0236 305.774 113.412 274.456 113.412C243.139 113.412 217.75 88.0236 217.75 56.7058C217.75 25.3881 243.139 2.2195e-06 274.456 4.95738e-06C305.774 7.69527e-06 331.162 25.3881 331.162 56.7058ZM250.741 56.7058C250.741 69.8035 261.359 80.4212 274.456 80.4212C287.554 80.4212 298.172 69.8035 298.172 56.7058C298.172 43.6082 287.554 32.9905 274.456 32.9905C261.359 32.9905 250.741 43.6082 250.741 56.7058Z" fill="#080808"/>
<path d="M548.929 56.7068C548.929 88.0246 523.541 113.413 492.224 113.413C460.906 113.413 435.518 88.0246 435.518 56.7068C435.518 25.389 460.906 0.000978782 492.224 0.00098152C523.541 0.000984258 548.929 25.3891 548.929 56.7068ZM468.508 56.7068C468.508 69.8044 479.126 80.4222 492.224 80.4222C505.321 80.4222 515.939 69.8044 515.939 56.7068C515.939 43.6092 505.321 32.9915 492.224 32.9915C479.126 32.9915 468.508 43.6092 468.508 56.7068Z" fill="#E1A72C"/>
<path d="M113.412 274.456C113.412 305.774 88.0236 331.162 56.7058 331.162C25.3881 331.162 -7.69527e-06 305.774 -4.95738e-06 274.456C-2.2195e-06 243.139 25.3881 217.75 56.7058 217.75C88.0236 217.75 113.412 243.139 113.412 274.456ZM32.9905 274.456C32.9905 287.554 43.6082 298.172 56.7058 298.172C69.8035 298.172 80.4212 287.554 80.4212 274.456C80.4212 261.359 69.8035 250.741 56.7058 250.741C43.6082 250.741 32.9905 261.359 32.9905 274.456Z" fill="#E1A72C"/>
<path d="M331.162 274.456C331.162 305.774 305.774 331.162 274.456 331.162C243.139 331.162 217.75 305.774 217.75 274.456C217.75 243.139 243.139 217.75 274.456 217.75C305.774 217.75 331.162 243.139 331.162 274.456ZM250.741 274.456C250.741 287.554 261.359 298.172 274.456 298.172C287.554 298.172 298.172 287.554 298.172 274.456C298.172 261.359 287.554 250.741 274.456 250.741C261.359 250.741 250.741 261.359 250.741 274.456Z" fill="#E1A72C"/>
<path d="M548.929 274.457C548.929 305.775 523.541 331.163 492.224 331.163C460.906 331.163 435.518 305.775 435.518 274.457C435.518 243.14 460.906 217.751 492.224 217.751C523.541 217.751 548.929 243.14 548.929 274.457ZM468.508 274.457C468.508 287.555 479.126 298.173 492.224 298.173C505.321 298.173 515.939 287.555 515.939 274.457C515.939 261.36 505.321 250.742 492.224 250.742C479.126 250.742 468.508 261.36 468.508 274.457Z" fill="#E1A72C"/>
<path d="M113.412 492.207C113.412 523.525 88.0236 548.913 56.7058 548.913C25.3881 548.913 -7.69527e-06 523.525 -4.95738e-06 492.207C-2.2195e-06 460.889 25.3881 435.501 56.7058 435.501C88.0236 435.501 113.412 460.889 113.412 492.207ZM32.9905 492.207C32.9905 505.304 43.6082 515.922 56.7058 515.922C69.8035 515.922 80.4212 505.304 80.4212 492.207C80.4212 479.109 69.8035 468.491 56.7058 468.491C43.6082 468.491 32.9905 479.109 32.9905 492.207Z" fill="#E1A72C"/>
<path d="M331.162 492.207C331.162 523.525 305.774 548.913 274.456 548.913C243.139 548.913 217.75 523.525 217.75 492.207C217.75 460.889 243.139 435.501 274.456 435.501C305.774 435.501 331.162 460.889 331.162 492.207ZM250.741 492.207C250.741 505.304 261.359 515.922 274.456 515.922C287.554 515.922 298.172 505.304 298.172 492.207C298.172 479.109 287.554 468.491 274.456 468.491C261.359 468.491 250.741 479.109 250.741 492.207Z" fill="#080808"/>
<path d="M548.929 492.207C548.929 523.525 523.541 548.913 492.224 548.913C460.906 548.913 435.518 523.525 435.518 492.207C435.518 460.889 460.906 435.501 492.224 435.501C523.541 435.501 548.929 460.889 548.929 492.207ZM468.508 492.207C468.508 505.304 479.126 515.922 492.224 515.922C505.321 515.922 515.939 505.304 515.939 492.207C515.939 479.109 505.321 468.491 492.224 468.491C479.126 468.491 468.508 479.109 468.508 492.207Z" fill="#E1A72C"/>
<rect x="424.362" y="313.449" width="40.8282" height="38.9233" transform="rotate(45 424.362 313.449)" fill="#080808"/>
<rect width="40.8282" height="38.9233" transform="matrix(-0.707107 0.707107 0.707107 0.707107 124.567 313.448)" fill="#080808"/>
</svg>